<mxfile host="app.diagrams.net" modified="2023-06-10T14:28:26.630Z" agent="Mozilla/5.0 (Windows NT 10.0; Win64; x64) AppleWebKit/537.36 (KHTML, like Gecko) Chrome/114.0.0.0 Safari/537.36" etag="hXdIO1VmlBoxcR7m0zB0" version="21.3.8" type="device">
  <diagram name="Page-1" id="2YBvvXClWsGukQMizWep">
    <mxGraphModel dx="1050" dy="541" grid="1" gridSize="10" guides="1" tooltips="1" connect="1" arrows="1" fold="1" page="1" pageScale="1" pageWidth="850" pageHeight="1100" math="0" shadow="0">
      <root>
        <mxCell id="0" />
        <mxCell id="1" parent="0" />
        <mxCell id="aM9ryv3xv72pqoxQDRHE-5" value="Jframe" style="shape=umlLifeline;perimeter=lifelinePerimeter;whiteSpace=wrap;html=1;container=0;dropTarget=0;collapsible=0;recursiveResize=0;outlineConnect=0;portConstraint=eastwest;newEdgeStyle={&quot;edgeStyle&quot;:&quot;elbowEdgeStyle&quot;,&quot;elbow&quot;:&quot;vertical&quot;,&quot;curved&quot;:0,&quot;rounded&quot;:0};" parent="1" vertex="1">
          <mxGeometry x="160" y="30" width="100" height="390" as="geometry" />
        </mxCell>
        <mxCell id="Ut7zkbqYrp6r1RxWFEo6-3" value="" style="html=1;points=[];perimeter=orthogonalPerimeter;outlineConnect=0;targetShapes=umlLifeline;portConstraint=eastwest;newEdgeStyle={&quot;edgeStyle&quot;:&quot;elbowEdgeStyle&quot;,&quot;elbow&quot;:&quot;vertical&quot;,&quot;curved&quot;:0,&quot;rounded&quot;:0};fillColor=#fad9d5;strokeColor=#ae4132;" parent="aM9ryv3xv72pqoxQDRHE-5" vertex="1">
          <mxGeometry x="45" y="50" width="10" height="330" as="geometry" />
        </mxCell>
        <mxCell id="Ut7zkbqYrp6r1RxWFEo6-1" value="" style="shape=umlLifeline;perimeter=lifelinePerimeter;whiteSpace=wrap;html=1;container=1;dropTarget=0;collapsible=0;recursiveResize=0;outlineConnect=0;portConstraint=eastwest;newEdgeStyle={&quot;edgeStyle&quot;:&quot;elbowEdgeStyle&quot;,&quot;elbow&quot;:&quot;vertical&quot;,&quot;curved&quot;:0,&quot;rounded&quot;:0};participant=umlActor;" parent="1" vertex="1">
          <mxGeometry x="40" y="30" width="20" height="390" as="geometry" />
        </mxCell>
        <mxCell id="Ut7zkbqYrp6r1RxWFEo6-2" value="" style="html=1;points=[];perimeter=orthogonalPerimeter;outlineConnect=0;targetShapes=umlLifeline;portConstraint=eastwest;newEdgeStyle={&quot;edgeStyle&quot;:&quot;elbowEdgeStyle&quot;,&quot;elbow&quot;:&quot;vertical&quot;,&quot;curved&quot;:0,&quot;rounded&quot;:0};fillColor=#d80073;fontColor=#ffffff;strokeColor=#A50040;" parent="Ut7zkbqYrp6r1RxWFEo6-1" vertex="1">
          <mxGeometry x="5" y="50" width="10" height="70" as="geometry" />
        </mxCell>
        <mxCell id="Ut7zkbqYrp6r1RxWFEo6-12" value="" style="html=1;points=[];perimeter=orthogonalPerimeter;outlineConnect=0;targetShapes=umlLifeline;portConstraint=eastwest;newEdgeStyle={&quot;edgeStyle&quot;:&quot;elbowEdgeStyle&quot;,&quot;elbow&quot;:&quot;vertical&quot;,&quot;curved&quot;:0,&quot;rounded&quot;:0};fillColor=#d80073;fontColor=#ffffff;strokeColor=#A50040;" parent="Ut7zkbqYrp6r1RxWFEo6-1" vertex="1">
          <mxGeometry x="5" y="310" width="10" height="70" as="geometry" />
        </mxCell>
        <mxCell id="Ut7zkbqYrp6r1RxWFEo6-4" value="Control" style="shape=umlLifeline;perimeter=lifelinePerimeter;whiteSpace=wrap;html=1;container=1;dropTarget=0;collapsible=0;recursiveResize=0;outlineConnect=0;portConstraint=eastwest;newEdgeStyle={&quot;edgeStyle&quot;:&quot;elbowEdgeStyle&quot;,&quot;elbow&quot;:&quot;vertical&quot;,&quot;curved&quot;:0,&quot;rounded&quot;:0};" parent="1" vertex="1">
          <mxGeometry x="340" y="30" width="100" height="390" as="geometry" />
        </mxCell>
        <mxCell id="Ut7zkbqYrp6r1RxWFEo6-14" value="" style="html=1;points=[];perimeter=orthogonalPerimeter;outlineConnect=0;targetShapes=umlLifeline;portConstraint=eastwest;newEdgeStyle={&quot;edgeStyle&quot;:&quot;elbowEdgeStyle&quot;,&quot;elbow&quot;:&quot;vertical&quot;,&quot;curved&quot;:0,&quot;rounded&quot;:0};fillColor=#60a917;fontColor=#ffffff;strokeColor=#2D7600;" parent="Ut7zkbqYrp6r1RxWFEo6-4" vertex="1">
          <mxGeometry x="45" y="50" width="10" height="330" as="geometry" />
        </mxCell>
        <mxCell id="Ut7zkbqYrp6r1RxWFEo6-5" value="Guardian API" style="shape=umlLifeline;perimeter=lifelinePerimeter;whiteSpace=wrap;html=1;container=1;dropTarget=0;collapsible=0;recursiveResize=0;outlineConnect=0;portConstraint=eastwest;newEdgeStyle={&quot;edgeStyle&quot;:&quot;elbowEdgeStyle&quot;,&quot;elbow&quot;:&quot;vertical&quot;,&quot;curved&quot;:0,&quot;rounded&quot;:0};" parent="1" vertex="1">
          <mxGeometry x="530" y="30" width="100" height="390" as="geometry" />
        </mxCell>
        <mxCell id="Ut7zkbqYrp6r1RxWFEo6-18" value="" style="html=1;points=[];perimeter=orthogonalPerimeter;outlineConnect=0;targetShapes=umlLifeline;portConstraint=eastwest;newEdgeStyle={&quot;edgeStyle&quot;:&quot;elbowEdgeStyle&quot;,&quot;elbow&quot;:&quot;vertical&quot;,&quot;curved&quot;:0,&quot;rounded&quot;:0};fillColor=#1ba1e2;fontColor=#ffffff;strokeColor=#006EAF;" parent="Ut7zkbqYrp6r1RxWFEo6-5" vertex="1">
          <mxGeometry x="45" y="110" width="10" height="90" as="geometry" />
        </mxCell>
        <mxCell id="Ut7zkbqYrp6r1RxWFEo6-6" value="Database The Guardian" style="shape=umlLifeline;perimeter=lifelinePerimeter;whiteSpace=wrap;html=1;container=1;dropTarget=0;collapsible=0;recursiveResize=0;outlineConnect=0;portConstraint=eastwest;newEdgeStyle={&quot;edgeStyle&quot;:&quot;elbowEdgeStyle&quot;,&quot;elbow&quot;:&quot;vertical&quot;,&quot;curved&quot;:0,&quot;rounded&quot;:0};" parent="1" vertex="1">
          <mxGeometry x="710" y="30" width="100" height="390" as="geometry" />
        </mxCell>
        <mxCell id="Ut7zkbqYrp6r1RxWFEo6-21" value="" style="html=1;points=[];perimeter=orthogonalPerimeter;outlineConnect=0;targetShapes=umlLifeline;portConstraint=eastwest;newEdgeStyle={&quot;edgeStyle&quot;:&quot;elbowEdgeStyle&quot;,&quot;elbow&quot;:&quot;vertical&quot;,&quot;curved&quot;:0,&quot;rounded&quot;:0};fillColor=#e3c800;fontColor=#000000;strokeColor=#B09500;" parent="Ut7zkbqYrp6r1RxWFEo6-6" vertex="1">
          <mxGeometry x="45" y="50" width="10" height="330" as="geometry" />
        </mxCell>
        <mxCell id="Ut7zkbqYrp6r1RxWFEo6-7" value="Calcolatore parole" style="shape=umlLifeline;perimeter=lifelinePerimeter;whiteSpace=wrap;html=1;container=1;dropTarget=0;collapsible=0;recursiveResize=0;outlineConnect=0;portConstraint=eastwest;newEdgeStyle={&quot;edgeStyle&quot;:&quot;elbowEdgeStyle&quot;,&quot;elbow&quot;:&quot;vertical&quot;,&quot;curved&quot;:0,&quot;rounded&quot;:0};" parent="1" vertex="1">
          <mxGeometry x="890" y="30" width="100" height="390" as="geometry" />
        </mxCell>
        <mxCell id="Ut7zkbqYrp6r1RxWFEo6-24" value="" style="html=1;points=[];perimeter=orthogonalPerimeter;outlineConnect=0;targetShapes=umlLifeline;portConstraint=eastwest;newEdgeStyle={&quot;edgeStyle&quot;:&quot;elbowEdgeStyle&quot;,&quot;elbow&quot;:&quot;vertical&quot;,&quot;curved&quot;:0,&quot;rounded&quot;:0};fillColor=#e51400;fontColor=#ffffff;strokeColor=#B20000;" parent="Ut7zkbqYrp6r1RxWFEo6-7" vertex="1">
          <mxGeometry x="45" y="190" width="10" height="80" as="geometry" />
        </mxCell>
        <mxCell id="Ut7zkbqYrp6r1RxWFEo6-8" value="Sistema di gestione file" style="shape=umlLifeline;perimeter=lifelinePerimeter;whiteSpace=wrap;html=1;container=1;dropTarget=0;collapsible=0;recursiveResize=0;outlineConnect=0;portConstraint=eastwest;newEdgeStyle={&quot;edgeStyle&quot;:&quot;elbowEdgeStyle&quot;,&quot;elbow&quot;:&quot;vertical&quot;,&quot;curved&quot;:0,&quot;rounded&quot;:0};" parent="1" vertex="1">
          <mxGeometry x="1080" y="30" width="100" height="390" as="geometry" />
        </mxCell>
        <mxCell id="Ut7zkbqYrp6r1RxWFEo6-27" value="" style="html=1;points=[];perimeter=orthogonalPerimeter;outlineConnect=0;targetShapes=umlLifeline;portConstraint=eastwest;newEdgeStyle={&quot;edgeStyle&quot;:&quot;elbowEdgeStyle&quot;,&quot;elbow&quot;:&quot;vertical&quot;,&quot;curved&quot;:0,&quot;rounded&quot;:0};fillColor=#6a00ff;fontColor=#ffffff;strokeColor=#3700CC;" parent="Ut7zkbqYrp6r1RxWFEo6-8" vertex="1">
          <mxGeometry x="45" y="260" width="10" height="110" as="geometry" />
        </mxCell>
        <mxCell id="Ut7zkbqYrp6r1RxWFEo6-9" value="Inserisce APIkey" style="html=1;verticalAlign=bottom;endArrow=open;edgeStyle=elbowEdgeStyle;elbow=vertical;curved=0;rounded=0;endFill=0;" parent="1" source="Ut7zkbqYrp6r1RxWFEo6-2" target="aM9ryv3xv72pqoxQDRHE-5" edge="1">
          <mxGeometry width="80" relative="1" as="geometry">
            <mxPoint x="60" y="90" as="sourcePoint" />
            <mxPoint x="130" y="90" as="targetPoint" />
            <Array as="points">
              <mxPoint x="60" y="90" />
            </Array>
          </mxGeometry>
        </mxCell>
        <mxCell id="Ut7zkbqYrp6r1RxWFEo6-11" value="Seleziona &quot;estrazione &lt;br&gt;termini&quot;" style="html=1;verticalAlign=bottom;endArrow=block;edgeStyle=elbowEdgeStyle;elbow=vertical;curved=0;rounded=0;" parent="1" source="Ut7zkbqYrp6r1RxWFEo6-2" target="aM9ryv3xv72pqoxQDRHE-5" edge="1">
          <mxGeometry x="-0.0291" y="-25" width="80" relative="1" as="geometry">
            <mxPoint x="15" y="85" as="sourcePoint" />
            <mxPoint x="135" y="115" as="targetPoint" />
            <Array as="points">
              <mxPoint x="190" y="120" />
              <mxPoint x="60" y="130" />
              <mxPoint x="100" y="115" />
            </Array>
            <mxPoint as="offset" />
          </mxGeometry>
        </mxCell>
        <mxCell id="Ut7zkbqYrp6r1RxWFEo6-13" value="mostra le parole a schermo" style="html=1;verticalAlign=bottom;endArrow=open;dashed=1;endSize=8;edgeStyle=elbowEdgeStyle;elbow=vertical;curved=0;rounded=0;" parent="1" target="Ut7zkbqYrp6r1RxWFEo6-1" edge="1">
          <mxGeometry x="0.3033" relative="1" as="geometry">
            <mxPoint x="210" y="320" as="sourcePoint" />
            <mxPoint x="130" y="320" as="targetPoint" />
            <Array as="points">
              <mxPoint x="150" y="390" />
              <mxPoint x="160" y="320" />
            </Array>
            <mxPoint as="offset" />
          </mxGeometry>
        </mxCell>
        <mxCell id="Ut7zkbqYrp6r1RxWFEo6-15" value="actionPerformed" style="html=1;verticalAlign=bottom;endArrow=block;edgeStyle=elbowEdgeStyle;elbow=vertical;curved=0;rounded=0;" parent="1" target="Ut7zkbqYrp6r1RxWFEo6-4" edge="1">
          <mxGeometry width="80" relative="1" as="geometry">
            <mxPoint x="210" y="130" as="sourcePoint" />
            <mxPoint x="290" y="130" as="targetPoint" />
          </mxGeometry>
        </mxCell>
        <mxCell id="Ut7zkbqYrp6r1RxWFEo6-17" value="printWords(words)" style="html=1;verticalAlign=bottom;endArrow=open;dashed=1;endSize=8;edgeStyle=elbowEdgeStyle;elbow=vertical;curved=0;rounded=0;" parent="1" target="aM9ryv3xv72pqoxQDRHE-5" edge="1">
          <mxGeometry relative="1" as="geometry">
            <mxPoint x="390" y="369.31" as="sourcePoint" />
            <mxPoint x="310" y="369.31" as="targetPoint" />
          </mxGeometry>
        </mxCell>
        <mxCell id="Ut7zkbqYrp6r1RxWFEo6-19" value="getContent(parola)" style="html=1;verticalAlign=bottom;endArrow=block;edgeStyle=elbowEdgeStyle;elbow=vertical;curved=0;rounded=0;" parent="1" target="Ut7zkbqYrp6r1RxWFEo6-5" edge="1">
          <mxGeometry width="80" relative="1" as="geometry">
            <mxPoint x="390" y="160" as="sourcePoint" />
            <mxPoint x="470" y="160" as="targetPoint" />
          </mxGeometry>
        </mxCell>
        <mxCell id="Ut7zkbqYrp6r1RxWFEo6-20" value="Articles[]" style="html=1;verticalAlign=bottom;endArrow=open;dashed=1;endSize=8;edgeStyle=elbowEdgeStyle;elbow=vertical;curved=0;rounded=0;" parent="1" target="Ut7zkbqYrp6r1RxWFEo6-4" edge="1">
          <mxGeometry relative="1" as="geometry">
            <mxPoint x="580" y="220" as="sourcePoint" />
            <mxPoint x="500" y="180" as="targetPoint" />
            <Array as="points">
              <mxPoint x="560" y="220" />
            </Array>
          </mxGeometry>
        </mxCell>
        <mxCell id="Ut7zkbqYrp6r1RxWFEo6-22" value="Unirest.get(query)" style="html=1;verticalAlign=bottom;endArrow=block;edgeStyle=elbowEdgeStyle;elbow=vertical;curved=0;rounded=0;" parent="1" target="Ut7zkbqYrp6r1RxWFEo6-6" edge="1">
          <mxGeometry width="80" relative="1" as="geometry">
            <mxPoint x="580" y="170" as="sourcePoint" />
            <mxPoint x="660" y="170" as="targetPoint" />
          </mxGeometry>
        </mxCell>
        <mxCell id="Ut7zkbqYrp6r1RxWFEo6-23" value="Response" style="html=1;verticalAlign=bottom;endArrow=open;dashed=1;endSize=8;edgeStyle=elbowEdgeStyle;elbow=vertical;curved=0;rounded=0;" parent="1" target="Ut7zkbqYrp6r1RxWFEo6-5" edge="1">
          <mxGeometry relative="1" as="geometry">
            <mxPoint x="760" y="190" as="sourcePoint" />
            <mxPoint x="680" y="190" as="targetPoint" />
          </mxGeometry>
        </mxCell>
        <mxCell id="Ut7zkbqYrp6r1RxWFEo6-25" value="mappingArticlesAmount(Articles[])" style="html=1;verticalAlign=bottom;endArrow=block;edgeStyle=elbowEdgeStyle;elbow=vertical;curved=0;rounded=0;" parent="1" target="Ut7zkbqYrp6r1RxWFEo6-7" edge="1">
          <mxGeometry width="80" relative="1" as="geometry">
            <mxPoint x="390" y="250" as="sourcePoint" />
            <mxPoint x="470" y="250" as="targetPoint" />
          </mxGeometry>
        </mxCell>
        <mxCell id="Ut7zkbqYrp6r1RxWFEo6-26" value="words" style="html=1;verticalAlign=bottom;endArrow=open;dashed=1;endSize=8;edgeStyle=elbowEdgeStyle;elbow=vertical;curved=0;rounded=0;" parent="1" target="Ut7zkbqYrp6r1RxWFEo6-4" edge="1">
          <mxGeometry relative="1" as="geometry">
            <mxPoint x="940" y="270" as="sourcePoint" />
            <mxPoint x="860" y="270" as="targetPoint" />
          </mxGeometry>
        </mxCell>
        <mxCell id="Ut7zkbqYrp6r1RxWFEo6-30" value="saveWords(words)" style="html=1;verticalAlign=bottom;endArrow=open;edgeStyle=elbowEdgeStyle;elbow=vertical;curved=0;rounded=0;endFill=0;" parent="1" target="Ut7zkbqYrp6r1RxWFEo6-8" edge="1">
          <mxGeometry x="-0.1611" width="80" relative="1" as="geometry">
            <mxPoint x="390" y="350.17" as="sourcePoint" />
            <mxPoint x="470" y="350.17" as="targetPoint" />
            <mxPoint as="offset" />
          </mxGeometry>
        </mxCell>
        <mxCell id="Ut7zkbqYrp6r1RxWFEo6-31" value="Comprende:&lt;br&gt;TxtManager,&lt;br&gt;Serializzatore" style="shape=note;size=20;whiteSpace=wrap;html=1;" parent="1" vertex="1">
          <mxGeometry x="1180" y="100" width="80" height="90" as="geometry" />
        </mxCell>
        <mxCell id="Ut7zkbqYrp6r1RxWFEo6-32" value="" style="endArrow=none;dashed=1;html=1;rounded=0;" parent="1" edge="1">
          <mxGeometry width="50" height="50" relative="1" as="geometry">
            <mxPoint x="1210" y="100" as="sourcePoint" />
            <mxPoint x="1190" y="50" as="targetPoint" />
            <Array as="points">
              <mxPoint x="1210" y="50" />
              <mxPoint x="1180" y="50" />
            </Array>
          </mxGeometry>
        </mxCell>
      </root>
    </mxGraphModel>
  </diagram>
</mxfile>
